<svg width="100" height="125" viewBox="0 0 100 125" fill="none" xmlns="http://www.w3.org/2000/svg">
<path d="M52.1231 13.7689C56.1682 13.3368 59.9573 12.9899 63.73 12.5139C68.2477 11.9439 72.1396 13.6896 75.8187 15.8781C77.5054 16.8814 79.2684 18.5698 78.4675 20.824C78.0507 22.2264 77.2579 23.488 76.1751 24.4719C75.0923 25.4558 73.7608 26.1245 72.325 26.4055C65.6582 27.3433 58.8616 27.8941 53.0318 23.343C51.4026 21.9152 49.8541 20.398 48.3933 18.7983C43.5082 19.8321 39.4356 23.2071 35.6735 26.7519C32.413 29.6392 29.6269 33.0213 27.4175 36.7744C22.7128 45.4826 24.6451 54.6835 34.6171 59.1439C35.1962 59.4533 35.8742 59.5213 36.5032 59.333C37.1322 59.1447 37.6613 58.7154 37.9751 58.1386C40.1212 55.1582 42.8972 52.6868 46.1059 50.9C49.3146 49.1131 52.8774 48.0547 56.5413 47.7998C58.7745 47.6264 61.0194 47.9169 63.1349 48.6531C65.2505 49.3893 67.1907 50.5553 68.8338 52.0776C72.4603 55.1885 71.1297 60.7138 66.1478 62.1061C60.884 63.6005 55.4964 64.6184 50.0502 65.1474C46.8656 65.4407 43.5556 64.2023 40.2814 63.838C39.8804 63.8411 39.4865 63.9439 39.1352 64.1372C38.7839 64.3305 38.4862 64.6081 38.269 64.9452C36.234 72.1743 36.5533 79.5732 36.9209 86.965C37.0552 87.1573 37.228 87.3194 37.4285 87.4411C38.905 86.1437 40.3389 84.7536 41.9189 83.5565C42.6475 83.0271 43.5228 82.7376 44.4233 82.7281C44.7087 82.8856 44.951 83.1108 45.129 83.3839C45.307 83.657 45.4152 83.9696 45.4442 84.2942C44.9688 84.9448 44.3871 85.5105 43.7236 85.9675C41.8231 87.8425 39.8449 89.6536 38.1117 91.6738C37.6151 92.2526 37.9283 93.4753 37.7222 94.3686C37.52 95.2446 37.1257 96.8016 36.8219 96.8C35.6599 96.7943 34.0789 96.6504 33.4146 95.8921C30.8642 92.9813 28.545 89.8584 26.2718 86.7188C25.2978 85.3737 23.0377 83.7845 25.2432 82.114C27.3045 80.5526 28.1772 83.0956 29.2208 84.2889C30.4647 85.7111 31.5018 87.3142 32.9923 89.3313C33.5457 80.1205 34.0614 71.5389 34.5994 62.5842C33.9593 62.2659 32.8116 61.6501 31.6276 61.1144C26.7187 58.8935 23.1457 55.1615 21.936 50.0688C21.3011 47.75 21.1401 45.3271 21.4625 42.9447C21.7849 40.5623 22.5841 38.2693 23.8124 36.2026C29.3938 27.16 37.5994 20.0339 47.3349 15.7748C47.9428 15.3889 48.4071 14.8139 48.6564 14.1384C49.7654 11.6128 51.4017 9.35355 53.4555 7.51224C55.5094 5.67093 57.9332 4.29013 60.5645 3.46248C61.8546 3.01348 62.9996 3.02016 63.1921 4.45226C63.2675 5.01404 62.1471 6.14389 61.3941 6.34206C57.168 7.45439 54.4153 10.2017 52.1231 13.7689ZM40.5449 60.4712C41.9185 60.8186 43.0792 61.1522 44.2574 61.4034C50.9745 62.7239 57.9268 62.1415 64.3306 59.7221C64.9883 59.5006 65.594 59.1477 66.1112 58.685C66.6283 58.2222 67.046 57.6592 67.3389 57.0301C67.8702 55.2292 66.5873 53.8427 64.9222 52.8503C60.0877 49.969 55.2399 50.1609 50.1801 52.263C46.1291 53.9459 42.6832 56.1795 40.5449 60.4712ZM63.8734 14.8932C60.2376 15.585 56.9964 16.1782 53.766 16.8256C51.9839 17.1827 51.939 18.249 52.893 19.4892C53.3973 20.197 54.0285 20.8052 54.7545 21.2829C57.3162 22.8722 60.1952 23.8804 63.1887 24.2365C66.1823 24.5926 69.2175 24.288 72.0805 23.3442C73.2935 22.9626 75.0307 21.4815 74.9925 20.5717C74.8603 19.8438 74.5592 19.1571 74.1134 18.5666C73.6676 17.9762 73.0896 17.4985 72.4258 17.172C69.628 16.2258 66.771 15.4646 63.8734 14.8932Z" fill="#D84B1E"/>
</svg>
