<svg width="411" height="374" viewBox="0 0 411 374" fill="none" xmlns="http://www.w3.org/2000/svg">
<path d="M149.386 350.956L30.0039 243.559C-11.903 205.855 -9.46828 139.183 35.0763 104.673L145.912 18.8057C180.226 -7.77801 228.527 -5.99877 260.812 23.0437L380.144 130.392C422.039 168.083 419.623 234.731 375.109 269.253L264.329 355.17C230.015 381.784 181.689 380.011 149.392 350.956H149.386Z" fill="#FDEADF"/>
<path d="M164.944 174.717L169.447 174.519C172.697 174.379 175.413 176.991 175.413 180.268V268.583C175.413 271.662 172.999 274.192 169.935 274.332L165.432 274.531C162.182 274.671 159.466 272.058 159.466 268.781V265.411L137.589 275.44C136.777 275.813 135.86 276.012 134.955 275.988C113.576 275.405 99.5797 261.155 99.5797 239.743C99.5797 232.688 101.321 225.528 105.127 217.166C105.708 215.895 106.764 214.845 108.029 214.274L136.997 201.108C138.309 200.513 139.783 200.373 141.152 200.851C143.717 201.738 146.851 203.778 150.112 206.554C153.791 209.679 159.443 206.95 159.443 202.111V180.49C159.443 177.411 161.857 174.881 164.921 174.741L164.944 174.717ZM152.491 263.09C155.276 263.09 157.644 261.038 158.143 258.286C159.072 253.248 159.466 249.155 159.466 245.703C159.466 231.102 153.861 220.14 143.148 213.994C142.266 213.493 141.233 213.248 140.224 213.248H122.525C119.739 213.248 117.372 215.3 116.873 218.053C115.944 223.09 115.549 227.184 115.549 230.636C115.549 245.236 121.155 256.21 131.879 262.344C132.761 262.845 133.794 263.09 134.804 263.09H152.503H152.491Z" fill="#215376"/>
<path d="M214.176 276C192.009 276 177.409 261.598 177.409 239.743C177.409 232.14 176.806 219.452 181.262 210.216L215.326 197.259C237.493 197.259 253.23 214.752 253.23 236.618C253.23 244.222 251.211 251.965 246.743 261.189L214.165 276H214.176ZM234.997 263.09C236.483 256.431 237.295 250.601 237.295 245.703C237.295 230.496 231.214 219.219 219.585 213.248H195.665C194.168 219.907 193.367 225.749 193.367 230.636C193.367 245.843 199.449 257.119 211.078 263.09H234.997Z" fill="#215376"/>
<path d="M292.087 276C269.92 276 255.459 261.598 255.459 239.743C255.459 232.653 257.223 225.446 261.064 217.026C261.598 215.848 262.585 214.869 263.768 214.332L293.364 200.875C294.118 200.525 294.965 200.35 295.789 200.373C304.366 200.618 311.991 203.312 317.887 207.93C320.452 209.936 320.405 213.889 317.956 216.047L313.163 220.28C310.981 222.204 307.743 221.959 305.747 219.837C303.623 217.574 301.105 215.627 298.203 213.959C297.391 213.493 296.439 213.259 295.487 213.259H278.02C275.49 213.259 273.262 215.055 272.798 217.551C271.881 222.449 271.382 226.834 271.382 230.647C271.382 252.385 281.92 263.102 297.472 263.102C303.96 263.102 309.902 260.665 316.796 256.443L318.966 259.837L303.89 274.496C302.892 275.464 301.569 276 300.188 276H292.064H292.087Z" fill="#215376"/>
<path d="M328.263 271.265L323.492 266.974C321.821 265.469 321.914 262.799 323.69 261.423L328.123 257.994C329.493 256.933 331.419 257.003 332.719 258.169L337.489 262.461C339.16 263.965 339.068 266.636 337.292 268.012L332.87 271.44C331.501 272.501 329.562 272.432 328.274 271.277L328.263 271.265Z" fill="#F67928"/>
<path d="M165.374 119.44C169.958 118.811 173.556 123.324 171.943 127.674L149.485 188.35C148.696 190.472 146.816 191.988 144.588 192.303L139.411 193.026C136.58 193.423 133.841 191.79 132.842 189.096L121.248 158.041C119.264 152.711 111.755 152.723 109.782 158.041L98.5355 188.362C97.7463 190.472 95.8777 191.988 93.6494 192.303L88.6008 193.015C85.7574 193.411 83.0299 191.778 82.0202 189.085L59.1567 127.813C57.8104 124.222 60.0387 120.28 63.8106 119.604L67.3504 118.962C70.2751 118.437 73.1533 120.093 74.1746 122.892L86.2448 155.837C88.2178 161.213 95.7849 161.201 97.7346 155.837L109.549 123.394C110.315 121.283 112.172 119.755 114.389 119.429L118.44 118.811C121.306 118.379 124.092 120.035 125.09 122.764L137.206 155.837C139.179 161.213 146.746 161.201 148.696 155.837L160.488 123.44C161.265 121.306 163.157 119.767 165.409 119.464L165.374 119.44Z" fill="#D84B1E"/>
<path d="M241.775 153.388H200.981C195.375 153.388 191.916 159.65 194.957 164.385C199.553 171.557 206.888 175.114 215.825 175.114C222.312 175.114 228.266 172.676 235.148 168.455L237.307 171.848L222.742 186.006C221.419 187.289 219.643 188.012 217.798 188.012H210.393C188.226 188.012 173.765 173.609 173.765 151.755C173.765 144.84 175.448 137.808 179.104 129.644C179.812 128.07 181.123 126.776 182.69 126.064L211.264 113.073C212.285 112.606 213.434 112.35 214.56 112.408C233.001 113.271 242.286 127.872 242.286 146.052C242.286 148.501 242.147 150.939 241.741 153.388H241.775ZM190.826 131.254C190.767 131.615 190.709 131.965 190.651 132.327C189.967 136.688 193.286 140.63 197.673 140.63H215.384C221.895 140.63 225.04 132.501 220.165 128.175C219.422 127.51 218.587 126.892 217.67 126.297C216.579 125.598 215.291 125.283 213.991 125.283H197.859C194.389 125.283 191.406 127.825 190.826 131.265V131.254Z" fill="#D84B1E"/>
<path d="M287.433 116.42C288.315 116.012 289.301 115.802 290.276 115.825C311.596 116.455 325.547 130.694 325.547 152.07C325.547 159.067 323.829 166.192 320.069 174.484C319.442 175.86 318.305 176.991 316.935 177.609L288.292 190.636C286.864 191.277 285.263 191.44 283.8 190.904C278.787 189.085 271.66 182.962 265.672 175.697V183.592C265.672 186.927 263.061 189.656 259.753 189.796L256.167 189.948C252.65 190.099 249.714 187.277 249.714 183.743V96.3615C249.714 93.0263 252.325 90.2974 255.633 90.1574L259.219 90.0058C262.736 89.8542 265.672 92.6764 265.672 96.2099V116.735C265.672 121.259 270.326 124.268 274.423 122.391L287.445 116.42H287.433ZM302.219 178.554C305.236 178.554 307.801 176.327 308.335 173.353C309.206 168.49 309.589 164.525 309.589 161.166C309.589 146.624 304.018 135.673 293.364 129.516C292.412 128.968 291.298 128.7 290.195 128.7H273.018C270.001 128.7 267.436 130.927 266.902 133.901C266.032 138.764 265.649 142.729 265.649 146.087C265.649 160.63 271.219 171.58 281.874 177.738C282.825 178.286 283.94 178.542 285.031 178.542H302.207L302.219 178.554Z" fill="#D84B1E"/>
</svg>
