<svg xmlns="http://www.w3.org/2000/svg" id="Camada_1" data-name="Camada 1" viewBox="0 0 896.18 605.38"><defs><style>.cls-1{fill:#215376}.cls-2{fill:#d84b1e}.cls-4{fill:#f67928}</style></defs><path d="M376.34 568.08 182.17 394.24c-68.16-61.03-64.2-168.95 8.25-224.81L370.69 30.44C426.5-12.59 505.06-9.71 557.57 37.3l194.09 173.76c68.14 61.01 64.21 168.89-8.19 224.77L563.29 574.9c-55.81 43.08-134.41 40.21-186.94-6.82Z" style="fill:#f67928;opacity:.15"/><path d="M76.41 170.37a31.49 31.49 0 0 1 14.41-2.46c47.12 3.11 77.01 33.86 77.01 80.54 0 14.99-3.38 31.59-9.66 47.54-2.7 6.87-8.17 12.29-14.96 15.18l-52.56 22.36c-4.03 1.71-8.41 2.44-12.79 2.18C30.24 332.92 0 302.08 0 255.11c0-14.31 3.08-30.1 8.83-45.39 3.04-8.09 9.3-14.57 17.25-17.95l50.33-21.41Zm20.7 139.13c14.14 0 26.13-10.53 27.8-24.57.67-5.62.97-10.7.97-15.61 0-32.34-11.88-56.17-35.33-70.53-5.02-3.07-10.78-4.72-16.66-4.72h-3.16c-14.14 0-26.13 10.53-27.8 24.57-.67 5.62-.97 10.7-.97 15.61 0 33.15 12.48 57.35 37.1 71.59 4.21 2.43 9.01 3.66 13.87 3.66h4.18ZM281.24 170.6l28.33-.78a6.03 6.03 0 0 1 6.2 6.03v154.54a2.49 2.49 0 0 1-2.42 2.49l-35.43.97c-1.4.04-2.56-1.09-2.56-2.49v-9c0-1.78-1.82-2.99-3.46-2.29l-36.91 15.64c-.32.13-.66.2-1.01.2-37.58-.15-53.42-16.4-53.42-58.6V176.63c0-3.27 2.6-5.94 5.87-6.03l28.33-.78a6.03 6.03 0 0 1 6.2 6.03v95.47c0 31.89 6.45 37.99 47.03 38.18 1.18 0 2.22-.82 2.48-1.97 3.45-15.42 4.88-26.92 4.88-38.21v-92.69c0-3.27 2.6-5.94 5.87-6.03ZM444.2 195.18h-22.06c-5.61 0-10.16 4.55-10.16 10.16v121.18c0 3.5-2.79 6.37-6.29 6.47l-27.46.75c-3.64.1-6.65-2.83-6.65-6.47V205.34c0-5.61-4.55-10.16-10.16-10.16h-23.66c-6.95 0-11.84-6.81-9.63-13.4l1.41-4.2c1.37-4.08 5.19-6.82 9.5-6.82h106.73c6.85 0 11.68 6.72 9.5 13.21l-1.44 4.29a10.168 10.168 0 0 1-9.63 6.92ZM563.74 332.86l-44.95-57.09a6.432 6.432 0 0 0-11.48 3.98v46.81c0 3.48-2.77 6.33-6.25 6.42l-27.55.76c-3.62.1-6.6-2.81-6.6-6.42V180.74c0-5.51 4.47-9.97 9.97-9.97h57.51c46.4 0 60.16 20.87 60.16 42.18 0 8.74-2.66 20.97-11.14 32.94-.68.97-1.65 1.71-2.74 2.17l-17 7.14c-3.91 1.64-5.18 6.55-2.57 9.88l42.47 54.3c2.97 3.8.86 9.39-3.88 10.28l-29.73 5.56c-2.35.44-4.75-.46-6.23-2.34Zm-56.42-127.57v37.18c0 3.55 2.88 6.43 6.43 6.43h29.87c2.76 0 5.25-1.75 6.09-4.37 1.82-5.68 2.68-10.76 2.68-16.27 0-9.84-2.08-21.95-13.06-30.91-1.76-1.44-3.99-2.17-6.26-2.17h-15.63c-5.59 0-10.11 4.53-10.11 10.11ZM678.13 170.37c4.54-1.93 9.48-2.78 14.41-2.46 47.12 3.11 77.01 33.86 77.01 80.54 0 14.99-3.38 31.59-9.66 47.54-2.7 6.87-8.17 12.29-14.96 15.18l-52.56 22.36c-4.03 1.71-8.41 2.44-12.79 2.18-47.61-2.79-77.85-33.63-77.85-80.6 0-14.31 3.08-30.1 8.83-45.39 3.04-8.09 9.3-14.57 17.25-17.95l50.33-21.41Zm20.7 139.13c14.14 0 26.13-10.53 27.8-24.57.66-5.62.97-10.7.97-15.61 0-32.34-11.88-56.17-35.33-70.53-5.02-3.07-10.78-4.72-16.66-4.72h-3.16c-14.14 0-26.13 10.53-27.8 24.57-.66 5.62-.97 10.7-.97 15.61 0 33.15 12.48 57.35 37.1 71.59 4.21 2.43 9.01 3.66 13.87 3.66h4.18ZM828.24 335.89c-19.18-.39-37-5.37-49.84-16.07-5.03-4.19-5.09-11.89-.09-16.12l15.12-12.78c4.26-3.6 10.57-3.21 14.41.84 6.96 7.33 14.54 12.64 24.68 16.95 1.27.54 2.65.8 4.03.8h18.69c4.81 0 9.09-3.26 10.19-7.95.53-2.28.78-4.52.78-6.7 0-15.1-7.99-19.76-37.74-25.53-33.96-6.44-54.83-18.65-54.83-46.17 0-9.02 4.16-19.66 10.85-28.02 1.33-1.67 3.05-3 4.98-3.91l46.69-22.16c1.95-.93 4.1-1.43 6.26-1.35 14.92.51 30.72 4.47 43.1 12.64 7.86 5.19 8.42 16.53 1.23 22.61l-11.47 9.69c-4.26 3.6-10.57 3.21-14.41-.84-6.73-7.09-14.04-12.28-23.68-16.52-1.83-.8-3.8-1.23-5.8-1.23h-14.42c-7.48 0-13.56 6.06-13.58 13.54 0 14.21 9.99 18.65 42.18 24.42 36.41 5.99 50.61 19.31 50.61 45.73 0 9.15-3.73 19.79-9.98 29.88-1.08 1.74-2.62 3.16-4.48 4.04l-48.82 23.2c-1.46.69-3.06 1.06-4.67 1.03Z" class="cls-1"/><path d="M54.63 513.12c-19.26-.38-37.15-5.4-50-16.19-4.94-4.15-5.02-11.73-.09-15.9l15.36-12.98c4.2-3.55 10.43-3.17 14.21.82 6.99 7.39 14.6 12.73 24.8 17.06 1.25.53 2.61.79 3.97.79h18.83c4.75 0 8.95-3.22 10.05-7.84.55-2.32.8-4.59.8-6.81 0-15.1-7.99-19.76-37.74-25.53C20.86 440.1-.01 427.89-.01 400.37c0-9.39 4.51-20.55 11.69-29.04.91-1.07 2.06-1.9 3.33-2.5l48.28-22.91c1.44-.68 3.02-1.05 4.61-1.01 17.15.43 35.59 5.44 48.72 16.16 5.04 4.12 5.17 11.78.2 15.98l-15.29 12.92c-4.2 3.55-10.43 3.17-14.21-.82-6.99-7.39-14.6-12.73-24.8-17.06-1.25-.53-2.61-.79-3.97-.79H39.66c-5.45 0-9.88 4.41-9.89 9.86v3.68c-.01 14.21 9.98 18.65 42.17 24.42 36.41 5.99 50.61 19.31 50.61 45.73 0 9.16-3.73 19.82-10.01 29.91a10.59 10.59 0 0 1-4.41 3.98l-48.89 23.23c-1.44.68-3.01 1.05-4.6 1.01Z" class="cls-4"/><path d="M203.86 347.26c4.03-1.71 8.41-2.44 12.79-2.18 47.61 2.79 77.85 33.63 77.85 80.6 0 14.99-3.38 31.59-9.66 47.54-2.7 6.87-8.17 12.29-14.96 15.18l-52.56 22.36c-4.03 1.71-8.41 2.44-12.79 2.18-47.61-2.79-77.85-33.63-77.85-80.6 0-14.99 3.38-31.59 9.66-47.54 2.7-6.87 8.17-12.29 14.96-15.18l52.56-22.36Zm19.92 139.46c14.14 0 26.13-10.53 27.8-24.57.66-5.62.97-10.7.97-15.61 0-33.15-12.48-57.35-37.1-71.59-4.21-2.43-9.01-3.66-13.87-3.66h-4.18c-14.14 0-26.13 10.53-27.8 24.57-.66 5.62-.97 10.7-.97 15.61 0 33.15 12.48 57.35 37.1 71.59 4.21 2.43 9.01 3.66 13.87 3.66h4.18Z" class="cls-2"/><path d="m419.93 351.1 8.76-.4c4.4-.2 8.07 3.31 8.07 7.71v148.02c0 4-3.05 7.34-7.04 7.69l-16.22 1.44c-2.66.24-5.25-.92-6.85-3.05l-62.78-83.36c-4.46-5.92-13.89-2.77-13.89 4.64v72.33c0 4.13-3.24 7.52-7.37 7.71l-8.76.4c-4.4.2-8.07-3.31-8.07-7.71V358.5c0-4 3.05-7.34 7.04-7.69l16.21-1.44c2.66-.24 5.26.92 6.86 3.06l62.78 83.7c4.45 5.94 13.9 2.79 13.9-4.63v-72.69c0-4.13 3.24-7.52 7.37-7.71Z" class="cls-4"/><path d="M499.82 513.11c-19.1-.39-36.85-5.34-49.67-15.97-5.11-4.23-5.16-12.05-.09-16.34l14.89-12.59c4.32-3.65 10.71-3.25 14.6.85 6.93 7.27 14.48 12.55 24.57 16.84 1.29.55 2.68.81 4.08.81h18.55c4.88 0 9.23-3.3 10.32-8.05.52-2.25.75-4.45.75-6.6 0-15.1-7.99-19.76-37.74-25.53-33.96-6.44-54.83-18.65-54.83-46.17 0-9.37 4.5-20.51 11.65-29 .93-1.1 2.12-1.96 3.42-2.57l48.17-22.86c1.48-.7 3.1-1.08 4.74-1.04 17.02.44 35.29 5.38 48.38 15.94 5.21 4.2 5.31 12.1.2 16.42l-14.82 12.52c-4.32 3.65-10.71 3.25-14.61-.85-6.93-7.27-14.48-12.55-24.57-16.84-1.29-.55-2.68-.81-4.08-.81h-18.69c-5.53 0-10.02 4.47-10.03 10v3.54c-.01 14.21 9.98 18.65 42.17 24.42 36.41 5.99 50.61 19.31 50.61 45.73 0 9.14-3.72 19.77-9.96 29.84-1.09 1.77-2.66 3.2-4.54 4.09l-48.75 23.17c-1.48.7-3.1 1.07-4.73 1.04Z" class="cls-2"/><path d="M601.72 519.21V357.25h8.55v161.96z" class="cls-1"/><path d="M613.28 519.21V390.39h8.55v128.82z" class="cls-4"/><path d="m726.18 431.6 3.88-.17c2.8-.12 5.14 2.12 5.14 4.93v75.73c0 2.64-2.08 4.81-4.72 4.93l-3.88.17c-2.8.12-5.14-2.12-5.14-4.93v-2.89l-18.85 8.6c-.7.32-1.49.49-2.27.47-18.42-.5-30.48-12.72-30.48-31.08 0-6.05 1.5-12.19 4.78-19.36a5.07 5.07 0 0 1 2.5-2.48l24.96-11.29c1.13-.51 2.4-.63 3.58-.22 2.21.76 4.91 2.51 7.72 4.89 3.17 2.68 8.04.34 8.04-3.81v-18.54c0-2.64 2.08-4.81 4.72-4.93Zm-10.73 75.78c2.4 0 4.44-1.76 4.87-4.12.8-4.32 1.14-7.83 1.14-10.79 0-12.52-4.83-21.92-14.06-27.19-.76-.43-1.65-.64-2.52-.64h-15.25c-2.4 0-4.44 1.76-4.87 4.12-.8 4.32-1.14 7.83-1.14 10.79 0 12.52 4.83 21.93 14.07 27.19.76.43 1.65.64 2.52.64h15.25ZM768.6 518.45c-19.1 0-31.68-12.35-31.68-31.09 0-6.52-.52-17.4 3.32-25.32l29.35-11.11c19.1 0 32.66 15 32.66 33.75 0 6.52-1.74 13.16-5.59 21.07l-28.07 12.7Zm17.94-11.07c1.28-5.71 1.98-10.71 1.98-14.91 0-13.04-5.24-22.71-15.26-27.83h-20.61c-1.29 5.71-1.98 10.72-1.98 14.91 0 13.04 5.24 22.71 15.26 27.83h20.61ZM835.73 518.45c-19.1 0-31.56-12.35-31.56-31.09 0-6.08 1.52-12.26 4.83-19.48a4.72 4.72 0 0 1 2.33-2.31l25.5-11.54c.65-.3 1.38-.45 2.09-.43 7.39.21 13.96 2.52 19.04 6.48 2.21 1.72 2.17 5.11.06 6.96l-4.13 3.63c-1.88 1.65-4.67 1.44-6.39-.38-1.83-1.94-4-3.61-6.5-5.04-.7-.4-1.52-.6-2.34-.6h-15.05c-2.18 0-4.1 1.54-4.5 3.68-.79 4.2-1.22 7.96-1.22 11.23 0 18.64 9.08 27.83 22.48 27.83 5.59 0 10.71-2.09 16.65-5.71l1.87 2.91-12.99 12.57c-.86.83-2 1.29-3.19 1.29h-7Z" class="cls-1"/><path d="m866.9 514.39-4.11-3.68c-1.44-1.29-1.36-3.58.17-4.76l3.82-2.94c1.18-.91 2.84-.85 3.96.15l4.11 3.68c1.44 1.29 1.36 3.58-.17 4.76l-3.81 2.94a3.11 3.11 0 0 1-3.96-.14Z" class="cls-4"/><path d="M726.55 384.2c3.95-.54 7.05 3.33 5.66 7.06l-19.35 52.03a5.293 5.293 0 0 1-4.22 3.39l-4.46.62c-2.44.34-4.8-1.06-5.66-3.37l-9.99-26.63c-1.71-4.57-8.18-4.56-9.88 0l-9.69 26a5.285 5.285 0 0 1-4.21 3.38l-4.35.61c-2.45.34-4.8-1.06-5.67-3.37l-19.7-52.54c-1.16-3.08.76-6.46 4.01-7.04l3.05-.55c2.52-.45 5 .97 5.88 3.37l10.4 28.25c1.7 4.61 8.22 4.6 9.9 0l10.18-27.82a5.255 5.255 0 0 1 4.17-3.4l3.49-.53a5.278 5.278 0 0 1 5.73 3.39l10.44 28.36c1.7 4.61 8.22 4.6 9.9 0l10.16-27.78c.67-1.83 2.3-3.15 4.24-3.41ZM792.38 413.31h-35.15c-4.83 0-7.81 5.37-5.19 9.43 3.96 6.15 10.28 9.2 17.98 9.2 5.59 0 10.72-2.09 16.65-5.71l1.86 2.91-12.55 12.14a6.142 6.142 0 0 1-4.26 1.72h-6.38c-19.1 0-31.56-12.35-31.56-31.09 0-5.93 1.45-11.96 4.6-18.96a6.24 6.24 0 0 1 3.09-3.07l24.62-11.14c.88-.4 1.87-.62 2.84-.57 15.89.74 23.89 13.26 23.89 28.85 0 2.1-.12 4.19-.47 6.29Zm-43.9-18.98-.15.92c-.59 3.74 2.27 7.12 6.05 7.12h15.26c5.61 0 8.32-6.97 4.12-10.68-.64-.57-1.36-1.1-2.15-1.61-.94-.6-2.05-.87-3.17-.87h-13.9c-2.99 0-5.56 2.18-6.06 5.13ZM831.72 381.61c.76-.35 1.61-.53 2.45-.51 18.37.54 30.39 12.75 30.39 31.08 0 6-1.48 12.11-4.72 19.22a5.46 5.46 0 0 1-2.7 2.68l-24.68 11.17c-1.23.55-2.61.69-3.87.23-4.32-1.56-10.46-6.81-15.62-13.04v6.77c0 2.86-2.25 5.2-5.1 5.32l-3.09.13a5.33 5.33 0 0 1-5.56-5.32v-74.93c0-2.86 2.25-5.2 5.1-5.32l3.09-.13a5.33 5.33 0 0 1 5.56 5.32v17.6c0 3.88 4.01 6.46 7.54 4.85l11.22-5.12Zm12.74 53.28c2.6 0 4.81-1.91 5.27-4.46.75-4.17 1.08-7.57 1.08-10.45 0-12.47-4.8-21.86-13.98-27.14-.82-.47-1.78-.7-2.73-.7h-14.8c-2.6 0-4.81 1.91-5.27 4.46-.75 4.17-1.08 7.57-1.08 10.45 0 12.47 4.8 21.86 13.98 27.14.82.47 1.78.69 2.72.69h14.8Z" class="cls-2"/></svg>